<svg xmlns="http://www.w3.org/2000/svg" style="display: none;">
   <symbol id="banner-main-bugt" viewBox="0 0 315.02559 70.866964">
      <path style="fill:none;stroke:#000000;stroke-width:0.79375;stroke-linecap:round;stroke-linejoin:round;stroke-dasharray:none;stroke-opacity:1" d="m 86.399887,45.018605 15.730543,-17.96046 15.05237,19.24986" id="path2421" />
      <path style="fill:none;stroke:#000000;stroke-width:0.79375;stroke-linecap:round;stroke-linejoin:round;stroke-dasharray:none;stroke-opacity:1" d="m 102.18931,67.828595 26.68036,-38.25382 14.44802,25.50001" id="path2423" />
      <path style="fill:none;stroke:#000000;stroke-width:0.79375;stroke-linecap:butt;stroke-linejoin:miter;stroke-dasharray:none;stroke-opacity:1" d="m 131.07172,70.470085 30.19962,-38.0641 11.56079,22.25649" id="path2425" />
      <path style="fill:none;stroke:#000000;stroke-width:0.79375;stroke-linecap:round;stroke-linejoin:round;stroke-dasharray:none;stroke-opacity:1" d="m 155.92349,70.470085 35.23288,-32.71625 25.245,32.71625" id="path2427" />
      <path style="fill:none;stroke:#000000;stroke-width:0.529167;stroke-linecap:round;stroke-linejoin:round;stroke-dasharray:none;stroke-opacity:1" d="m 139.99512,49.143845 4.04741,-7.75461 3.77938,8.01985" id="path2429" />
      <circle r="13.229167" cy="23.174591" cx="265.39215" id="path2450-0" style="fill:none;fill-opacity:0.982222;fill-rule:nonzero;stroke:#000000;stroke-width:1.32292;stroke-linecap:round;stroke-linejoin:round;stroke-miterlimit:4;stroke-dasharray:none;stroke-opacity:1;paint-order:markers fill stroke" />
      <path id="path1027" d="M 265.48642,7.694365 V 5.182115" style="fill:none;stroke:#000000;stroke-width:1.32292;stroke-linecap:round;stroke-linejoin:miter;stroke-miterlimit:4;stroke-dasharray:none;stroke-opacity:1" />
      <path id="path1027-8" d="m 251.88854,14.550285 -3.58893,-2.3328" style="fill:none;stroke:#000000;stroke-width:1.32292;stroke-linecap:round;stroke-linejoin:miter;stroke-miterlimit:4;stroke-dasharray:none;stroke-opacity:1" />
      <path id="path1046" d="m 273.38208,9.608455 3.58892,-5.8021" style="fill:none;stroke:#000000;stroke-width:0.79375;stroke-linecap:round;stroke-linejoin:miter;stroke-miterlimit:4;stroke-dasharray:none;stroke-opacity:1" />
      <path id="path1048" d="m 281.09827,23.007125 7.17786,0.0598" style="fill:none;stroke:#000000;stroke-width:1.32292;stroke-linecap:round;stroke-linejoin:miter;stroke-miterlimit:4;stroke-dasharray:none;stroke-opacity:1" />
      <path id="path1050" d="m 280.67956,18.939675 3.40948,-1.85428" style="fill:none;stroke:#000000;stroke-width:1.32292;stroke-linecap:round;stroke-linejoin:miter;stroke-miterlimit:4;stroke-dasharray:none;stroke-opacity:1" />
      <path id="path1052" d="m 278.52622,14.991855 7.17786,-5.32358" style="fill:none;stroke:#000000;stroke-width:0.79375;stroke-linecap:round;stroke-linejoin:miter;stroke-miterlimit:4;stroke-dasharray:none;stroke-opacity:1" />
      <path id="path1054" d="m 276.61212,12.240335 2.69169,-3.23003" style="fill:none;stroke:#000000;stroke-width:1.32292;stroke-linecap:round;stroke-linejoin:miter;stroke-miterlimit:4;stroke-dasharray:none;stroke-opacity:1" />
      <path id="path1056" d="M 269.55388,8.412145 271.1689,0.39687499" style="fill:none;stroke:#000000;stroke-width:0.79375;stroke-linecap:round;stroke-linejoin:miter;stroke-miterlimit:4;stroke-dasharray:none;stroke-opacity:1" />
      <path id="path1058" d="M 261.77788,8.352335 259.62452,0.51650499" style="fill:none;stroke:#000000;stroke-width:0.79375;stroke-linecap:round;stroke-linejoin:miter;stroke-miterlimit:4;stroke-dasharray:none;stroke-opacity:1" />
      <path id="path1060" d="m 258.42821,9.429015 -1.25614,-2.81133" style="fill:none;stroke:#000000;stroke-width:1.32292;stroke-linecap:round;stroke-linejoin:miter;stroke-miterlimit:4;stroke-dasharray:none;stroke-opacity:1" />
      <path id="path1062" d="m 254.60002,11.582375 -4.84506,-6.10118" style="fill:none;stroke:#000000;stroke-width:0.79375;stroke-linecap:round;stroke-linejoin:miter;stroke-miterlimit:4;stroke-dasharray:none;stroke-opacity:1" />
      <path id="path1064" d="m 250.41594,17.950595 -6.37548,-2.54429" style="fill:none;stroke:#000000;stroke-width:0.79375;stroke-linecap:round;stroke-linejoin:miter;stroke-miterlimit:4;stroke-dasharray:none;stroke-opacity:1" />
      <path id="path1066" d="m 249.77123,21.972745 -5.95676,-0.17944" style="fill:none;stroke:#000000;stroke-width:1.32292;stroke-linecap:round;stroke-linejoin:miter;stroke-miterlimit:4;stroke-dasharray:none;stroke-opacity:1" />
      <path id="path1068" d="m 250.06006,26.540495 -4.85833,1.51715" style="fill:none;stroke:#000000;stroke-width:0.79375;stroke-linecap:round;stroke-linejoin:miter;stroke-miterlimit:4;stroke-dasharray:none;stroke-opacity:1" />
      <path id="path1070" d="m 251.72887,30.484075 -5.9465,3.40646" style="fill:none;stroke:#000000;stroke-width:0.79375;stroke-linecap:round;stroke-linejoin:miter;stroke-miterlimit:4;stroke-dasharray:none;stroke-opacity:1" />
      <path id="path1072" d="m 253.97884,34.211385 -3.5684,3.74909" style="fill:none;stroke:#000000;stroke-width:1.32292;stroke-linecap:round;stroke-linejoin:miter;stroke-miterlimit:4;stroke-dasharray:none;stroke-opacity:1" />
      <path id="path1074" d="m 274.70529,35.946035 2.97324,4.3345" style="fill:none;stroke:#000000;stroke-width:1.32292;stroke-linecap:round;stroke-linejoin:miter;stroke-miterlimit:4;stroke-dasharray:none;stroke-opacity:1" />
      <path id="path1076" d="m 277.32991,32.876685 6.34042,5.92173" style="fill:none;stroke:#000000;stroke-width:0.79375;stroke-linecap:round;stroke-linejoin:miter;stroke-miterlimit:4;stroke-dasharray:none;stroke-opacity:1" />
      <path id="path1078" d="m 279.00475,29.586825 3.40947,2.15336" style="fill:none;stroke:#000000;stroke-width:1.32292;stroke-linecap:round;stroke-linejoin:miter;stroke-miterlimit:4;stroke-dasharray:none;stroke-opacity:1" />
      <path id="path1080" d="m 280.08142,26.715685 8.19472,2.75151" style="fill:none;stroke:#000000;stroke-width:0.79375;stroke-linecap:round;stroke-linejoin:miter;stroke-miterlimit:4;stroke-dasharray:none;stroke-opacity:1" />
      <path style="fill:#ffffff;fill-opacity:1;stroke:#000000;stroke-width:0.79375;stroke-linecap:round;stroke-linejoin:round;stroke-dasharray:none;stroke-opacity:1" d="m 203.03174,53.168225 32.79489,-39.00783 35.54746,56.30969" id="path2431" />
      <path style="fill:#ffffff;fill-opacity:1;stroke:#000000;stroke-width:0.529167;stroke-linecap:round;stroke-linejoin:round;stroke-dasharray:none;stroke-opacity:1" d="m 252.34204,40.427765 11.48214,-12.42589 26.89655,32.40168" id="path2433" />
      <circle r="13.229167" cy="24.075424" cx="32.945278" id="path2450" style="fill:none;fill-opacity:0.982222;fill-rule:nonzero;stroke:#000000;stroke-width:1.32292;stroke-linecap:round;stroke-linejoin:round;stroke-miterlimit:4;stroke-dasharray:none;stroke-opacity:1;paint-order:markers fill stroke" />
      <path id="path888" d="m 29.749959,11.374755 -2.51225,0.95704 -3.230036,2.15336 -1.914097,2.39262 -1.555202,3.40948 -0.837417,3.88801 1.07668,4.90487 2.871142,4.30671 4.067452,2.75151 4.127269,1.49539 c -0.103266,-0.5114 -1.534527,-1.86297 -0.777602,-2.93096 -0.616065,-0.31158 -0.850529,-0.56183 -1.31594,-1.5552 -0.199097,-1.08636 -0.03322,-1.50867 0.418708,-2.21317 -0.623615,-0.54817 -1.066494,-1.09018 -1.572098,-2.52376 0.214175,-1.12735 0.521258,-1.72776 1.512283,-2.68019 -0.812078,-1.01441 -0.966732,-1.80746 -0.897233,-2.75152 0.408043,-1.47374 0.763537,-1.69435 1.73465,-2.30288 -0.744196,-0.51573 -1.155909,-1.15147 -0.957046,-2.39262 0.122287,-0.16017 0.140385,-0.77038 1.256124,-1.46548 -0.456933,-0.6803 -0.946789,-1.00602 -0.957048,-2.00383 0,0 0.03443,-1.23801 1.377258,-2.05513 -0.198381,-1.68376 1.515878,-1.1281 1.470978,-1.64767 z" style="fill:#000000;fill-opacity:0.982222;stroke:#000000;stroke-width:0.264583px;stroke-linecap:butt;stroke-linejoin:miter;stroke-opacity:1" />
      <circle r="0.44861615" cy="18.881592" cx="41.862598" id="path894" style="fill:#000000;fill-opacity:0.982222;fill-rule:nonzero;stroke:none;stroke-width:1.32292;stroke-linecap:round;stroke-linejoin:round;stroke-miterlimit:4;stroke-dasharray:none;stroke-opacity:1;paint-order:markers fill stroke" />
      <ellipse ry="2.0135658" rx="1.9501218" cy="17.063843" cx="37.805134" id="path894-5" style="fill:#000000;fill-opacity:0.982222;fill-rule:nonzero;stroke:none;stroke-width:1.32292;stroke-linecap:round;stroke-linejoin:round;stroke-miterlimit:4;stroke-dasharray:none;stroke-opacity:1;paint-order:markers fill stroke" />
      <circle r="0.99846327" cy="25.522995" cx="40.152557" id="path894-5-1" style="fill:#000000;fill-opacity:0.982222;fill-rule:nonzero;stroke:none;stroke-width:1.32292;stroke-linecap:round;stroke-linejoin:round;stroke-miterlimit:4;stroke-dasharray:none;stroke-opacity:1;paint-order:markers fill stroke" />
      <circle r="0.44861615" cy="16.810043" cx="38.587608" id="path894-0" style="fill:#ffffff;fill-opacity:1;fill-rule:nonzero;stroke:none;stroke-width:1.32292;stroke-linecap:round;stroke-linejoin:round;stroke-miterlimit:4;stroke-dasharray:none;stroke-opacity:1;paint-order:markers fill stroke" />
      <ellipse ry="0.27943242" rx="0.30058038" cy="18.248108" cx="37.297581" id="path894-0-5" style="fill:#ffffff;fill-opacity:1;fill-rule:nonzero;stroke:none;stroke-width:1.32292;stroke-linecap:round;stroke-linejoin:round;stroke-miterlimit:4;stroke-dasharray:none;stroke-opacity:1;paint-order:markers fill stroke" />
      <ellipse ry="0.55329317" rx="0.56824714" cy="20.003128" cx="24.516106" id="path894-0-7" style="fill:#ffffff;fill-opacity:1;fill-rule:nonzero;stroke:none;stroke-width:1.32292;stroke-linecap:round;stroke-linejoin:round;stroke-miterlimit:4;stroke-dasharray:none;stroke-opacity:1;paint-order:markers fill stroke" />
      <ellipse ry="1.2262174" rx="1.1813558" cy="25.01268" cx="23.319794" id="path894-0-7-1" style="fill:#ffffff;fill-opacity:1;fill-rule:nonzero;stroke:none;stroke-width:1.32292;stroke-linecap:round;stroke-linejoin:round;stroke-miterlimit:4;stroke-dasharray:none;stroke-opacity:1;paint-order:markers fill stroke" />
      <path style="fill:#ffffff;fill-opacity:1;stroke:#000000;stroke-width:0.79375;stroke-linecap:round;stroke-linejoin:round;stroke-dasharray:none;stroke-opacity:1" d="m 4.2963263,70.470085 31.7218077,-43.63438 12.932642,21.45191 20.234473,-29.17029 34.518071,51.35276" id="path2419" />
      <path style="fill:none;stroke:#000000;stroke-width:0.79375;stroke-linecap:round;stroke-linejoin:round;stroke-dasharray:none;stroke-opacity:1" d="m 281.44064,70.470085 16.98729,-18.2456 16.20082,18.2456" id="path2435" />
      <path style="fill:none;stroke:#000000;stroke-width:0.529167;stroke-linecap:round;stroke-linejoin:round;stroke-dasharray:none;stroke-opacity:1" d="m 225.99603,25.878475 2.2807,3.61766 2.35935,-3.61766 2.35934,3.38172 2.12341,-3.22444 2.04477,3.22444 2.51663,-3.06715 1.73019,2.98851 2.04476,-2.90986" id="path2441" />
      <path style="fill:none;stroke:#000000;stroke-width:0.529167;stroke-linecap:round;stroke-linejoin:round;stroke-dasharray:none;stroke-opacity:1" d="m 65.32471,24.856085 1.65154,3.22444 2.202055,-3.14579 1.730188,2.9885 2.044763,-2.9885" id="path2443" />
      <path style="fill:none;stroke:none;stroke-width:0.264583;stroke-linecap:butt;stroke-linejoin:miter;stroke-dasharray:none;stroke-opacity:1" d="m 21.063856,67.460715 c 31.196605,-3.79835 39.85303,-16.62607 54.716002,-16.98844 14.04094,-1.4588 11.516577,11.18474 38.504172,7.51417 25.99492,-7.91755 23.2615,-22.87028 34.42392,-24.77091 14.02143,-1.18502 18.44663,10.90643 29.04155,14.43411 11.34799,4.15622 17.83984,-0.71827 26.98962,0.75796 20.283,3.27248 12.93439,20.53073 73.61828,20.64088" id="path1140" />
      <path style="fill:#ffffff;fill-opacity:1;stroke:#000000;stroke-width:0.529167;stroke-linecap:round;stroke-linejoin:round;stroke-dasharray:none;stroke-opacity:1" d="m 259.13815,48.440455 34.57336,4.54598 -2.03374,9.21158 -28.5918,-1.67482 z" id="path871-2" />
      <path id="path1327" style="font-size:10.5833px;line-height:1.25;font-family:'Britannic Bold';-inkscape-font-specification:'Britannic Bold, ';letter-spacing:0px;word-spacing:0px;stroke-width:0.264584" d="m 291.50351,53.695425 -0.15741,0.79372 -3.67344,5.99281 2.2759,0.15892 -0.13045,0.66954 -3.92304,-0.2501 0.0765,-0.69733 3.50734,-6.02668 -2.3933,-0.3022 0.10783,-0.91877 z m -5.54061,1.80193 -0.8253,0.12418 c 0.0548,-0.22752 0.0896,-0.42117 0.10262,-0.57922 0.0887,-1.03861 -0.30699,-1.63085 -1.201,-1.74635 -0.71573,-0.0929 -1.0923,0.23968 -1.12273,0.98303 -0.0226,0.54535 0.34699,1.04642 1.09229,1.50406 1.38276,0.84582 1.98108,1.89658 1.8515,3.13839 -0.073,0.69993 -0.31394,1.23487 -0.72007,1.61783 -0.40092,0.37602 -0.90445,0.54275 -1.51669,0.50454 -1.37928,-0.0868 -2.06805,-0.82237 -2.04196,-2.26913 0.003,-0.12157 0.0122,-0.2718 0.0304,-0.45156 l 0.84357,-0.17195 c -0.0757,0.32913 -0.11741,0.61309 -0.12524,0.85277 -0.0313,0.93179 0.35743,1.41115 1.15665,1.46586 0.63225,0.0426 0.97054,-0.25531 1.02098,-0.90487 0.0391,-0.49412 -0.31655,-0.96914 -1.08272,-1.42765 -1.14795,-0.6843 -1.72802,-1.7038 -1.70106,-3.08976 0.0165,-0.8189 0.24438,-1.46846 0.68703,-1.93479 0.45223,-0.47588 1.03055,-0.6678 1.72628,-0.57314 1.40363,0.19104 2.00022,1.20533 1.82541,2.95776 z m -5.13186,-3.23999 -0.0235,8.47817 -1.70366,-0.10855 -0.28438,-8.64056 z m -3.2047,-0.4316 0.47049,8.73696 -1.35928,-0.0868 -3.37776,-5.56817 0.73747,5.3997 -0.63224,-0.04 -1.37406,-9.18765 1.42711,0.19278 3.82215,6.77959 -0.4183,-6.32107 z m -6.86683,-0.92484 1.60191,9.2962 -1.955,-0.12505 -2.01413,-9.49072 z m -3.18731,-0.42986 0.25394,1.12631 -3.05424,-0.38643 0.98445,3.54393 2.42461,0.24576 0.22438,0.96044 -2.37591,-0.22317 1.14621,4.12836 -2.11763,-0.1346 -3.21513,-10.0326 z" />
      <path style="fill:#ffffff;fill-opacity:1;stroke:#000000;stroke-width:0.529167;stroke-linecap:round;stroke-linejoin:round;stroke-dasharray:none;stroke-opacity:1" d="M 1.5805194,58.099415 0.26457853,51.160815 27.7797,48.648565 26.344129,59.056465 Z" id="path2205" />
      <path id="path2201" style="font-size:10.5833px;line-height:1.25;font-family:'Britannic Bold';-inkscape-font-specification:'Britannic Bold, ';letter-spacing:0px;word-spacing:0px;stroke-width:0.264583" d="m 25.665075,49.797935 -0.134765,0.9124 -2.060773,0.14466 -0.824344,7.00584 -2.149145,-0.0735 0.556199,-6.7634 -1.817815,0.12769 0.0457,-0.8235 z m -11.817874,7.76227 -0.181417,-6.76582 2.710623,-0.22467 c 0.74731,-0.0622 1.351633,0.0776 1.800244,0.42266 0.450515,0.34185 0.660669,0.82755 0.629596,1.44659 -0.04639,0.92695 -0.558102,1.52821 -1.508123,1.81672 0.471462,0.18668 0.774662,0.39761 0.906051,0.62955 0.134159,0.23194 0.211366,0.67965 0.23162,1.33425 0.02346,0.76451 0.119445,1.26233 0.288053,1.5072 l -1.951282,-0.0671 c -0.114252,-0.30144 -0.167569,-0.67723 -0.159347,-1.13222 l -0.0018,-0.39519 8.6e-5,-0.50347 c 0.01419,-0.79361 -0.268751,-1.19283 -0.840789,-1.18152 l -0.30268,0.006 9.52e-4,3.16229 z m 1.620644,-3.68516 0.359547,-0.0105 c 0.686117,-0.0194 1.043932,-0.44691 1.061936,-1.29627 0.01852,-0.872 -0.335225,-1.29143 -1.048606,-1.24051 l -0.373656,0.0267 z m -3.872875,-2.90853 1.829067,6.57915 -1.52102,-0.0517 -0.382051,-1.30921 -1.500852,-0.0162 -0.1911989,1.25425 -0.529453,-0.0186 0.9044929,-6.32215 z m -1.487436,4.59918 h 1.234352 l -0.814391,-2.85034 z m -1.3265326,-4.36562 0.067512,0.67965 -1.1991242,0.084 0.6349629,5.40652 -1.3320717,-0.0461 -0.7315575,-5.26024 -1.0903254,0.076 -0.097806,-0.62874 z m -3.7845031,2.04947 -0.5364639,0.17375 c -0.0026,-0.15921 -0.012897,-0.29255 -0.0309,-0.40004 -0.1175409,-0.69824 -0.4708558,-1.03039 -1.0473944,-0.98755 -0.4451491,0.0331 -0.6192965,0.28608 -0.5295396,0.75481 0.06656,0.34669 0.3649132,0.63035 0.9010309,0.85502 1.0540591,0.44044 1.6646136,1.12979 1.8079476,2.03977 0.082054,0.52125 0.010387,0.93179 -0.2105002,1.23242 -0.2167321,0.29175 -0.540532,0.42752 -0.9689761,0.41216 -0.9221502,-0.0331 -1.4677024,-0.53015 -1.6674699,-1.51285 -0.016532,-0.0816 -0.032544,-0.18184 -0.048038,-0.30225 l 0.4861759,-0.16486 c 0.00381,0.22628 0.021898,0.42104 0.05401,0.5851 0.1257635,0.64247 0.4501693,0.96654 0.9839501,0.98109 0.4360609,0.0121 0.6166998,-0.21659 0.5349059,-0.69097 -0.06154,-0.3572 -0.3851669,-0.6748 -0.9645618,-0.94553 -0.8228724,-0.38387 -1.3157129,-1.00372 -1.4937552,-1.88299 -0.1029478,-0.50914 -0.062518,-0.93261 0.1253307,-1.2696 0.1931893,-0.3467 0.5036598,-0.54146 0.9342678,-0.57783 0.9102057,-0.0776 1.4773965,0.49944 1.6699802,1.70035 z" />
      <text xml:space="preserve" style="font-style:normal;font-weight:normal;font-size:10.5833px;line-height:1.25;font-family:sans-serif;letter-spacing:0px;word-spacing:0px;fill:#000000;fill-opacity:1;stroke:none;stroke-width:0.264583" id="text3092">
         <textPath xlink:href="#path1140" id="textPath3094" style="font-style:normal;font-variant:normal;font-weight:normal;font-stretch:normal;font-family:'AR DESTINE';-inkscape-font-specification:'AR DESTINE'"> 6:33 min/km   8h limit      72km   5200+ 5100- ... </textPath>
      </text>
   </symbol>
</svg>
